<svg width="20" height="20" viewBox="0 0 20 20" fill="none" xmlns="http://www.w3.org/2000/svg">
<mask id="mask0_1075_47" style="mask-type:luminance" maskUnits="userSpaceOnUse" x="0" y="0" width="20" height="20">
<path d="M20 0H0V20H20V0Z" fill="white"/>
</mask>
<g mask="url(#mask0_1075_47)">
<path d="M15.8333 9.58333V15.4167C15.8333 15.6467 15.6467 15.8333 15.4167 15.8333C15.1867 15.8333 15 15.6467 15 15.4167V9.58333C15 9.35333 15.1867 9.16667 15.4167 9.16667C15.6467 9.16667 15.8333 9.35333 15.8333 9.58333ZM19.5833 7.5C19.3533 7.5 19.1667 7.68667 19.1667 7.91667V16.25C19.1667 17.8583 17.8583 19.1667 16.25 19.1667H3.75C2.14167 19.1667 0.833333 17.8583 0.833333 16.25V3.75C0.833333 2.14167 2.14167 0.833333 3.75 0.833333H12.0833C12.3133 0.833333 12.5 0.646667 12.5 0.416667C12.5 0.186667 12.3133 0 12.0833 0H3.75C1.6825 0 0 1.6825 0 3.75V16.25C0 18.3175 1.6825 20 3.75 20H16.25C18.3175 20 20 18.3175 20 16.25V7.91667C20 7.68667 19.8133 7.5 19.5833 7.5ZM12.3525 3.51417L14.7108 2.62167L15.655 0.261667C15.7817 -0.055 16.3017 -0.055 16.4291 0.261667L17.375 2.625L19.7383 3.57083C19.8967 3.63417 20 3.7875 20 3.9575C20 4.1275 19.8959 4.28083 19.7383 4.34417L17.375 5.29L16.4291 7.65333C16.3658 7.81167 16.2125 7.915 16.0425 7.915C15.8725 7.915 15.7192 7.81087 15.6559 7.65333L14.7083 5.285L12.3392 4.28667C12.1825 4.22 12.0809 4.065 12.0842 3.895C12.0875 3.725 12.1942 3.57333 12.3533 3.51333L12.3525 3.51417ZM13.6217 3.925L15.1917 4.58667C15.2941 4.63 15.375 4.7125 15.4167 4.81583L16.0417 6.37833L16.6667 4.81583C16.7091 4.71 16.7925 4.62583 16.8991 4.58333L18.4617 3.95833L16.8991 3.33333C16.7933 3.29083 16.7091 3.2075 16.6667 3.10083L16.0417 1.53833L15.4167 3.10083C15.3733 3.20917 15.2867 3.29417 15.1767 3.33583L13.6217 3.925ZM9.32667 5.20083L12.4809 15.2933C12.55 15.5125 12.4275 15.7467 12.2075 15.815C12.1667 15.8283 12.1242 15.8341 12.0833 15.8341C11.9058 15.8341 11.7417 15.72 11.6858 15.5417L10.7359 12.5009H5.09833L4.14833 15.5417C4.07917 15.7617 3.845 15.8842 3.62667 15.815C3.40667 15.7467 3.28417 15.5125 3.35333 15.2933L6.5075 5.20083C6.70413 4.57083 7.25833 4.16333 7.91753 4.16333C8.57753 4.16333 9.13 4.57083 9.32667 5.20083ZM10.475 11.6675L8.53167 5.44917C8.42747 5.11583 8.14587 4.9975 7.91667 4.9975C7.68747 4.9975 7.40587 5.11667 7.30167 5.45L5.35833 11.6675H10.475Z" fill="#0F0F0F"/>
</g>
</svg>
