<svg width="19" height="20" viewBox="0 0 19 20" fill="none" xmlns="http://www.w3.org/2000/svg">
<path d="M1.49211 15.0065C0.609939 14.5589 0 13.5931 0 12.4728V7.52743C0 5.98303 1.16169 4.72961 2.59769 4.72961H7.11041C7.93443 4.72961 8.75321 4.58189 9.53143 4.29092C11.4631 3.50194 13.4716 2.3582 14.9762 1.02085L15.8792 0.217323C15.8948 0.202774 15.9124 0.189345 15.9301 0.177034C16.6221 -0.297472 17.5282 0.237467 17.5282 1.12157V8.63871C18.1226 8.76179 18.5714 9.32471 18.5714 10.0006C18.5714 10.6766 18.1226 11.2384 17.5282 11.3615V18.8798C17.5282 19.7605 16.6221 20.2977 15.9301 19.8231C15.9124 19.8109 15.8948 19.7974 15.8781 19.7829L14.9762 18.9794C13.4737 17.642 11.4808 16.5016 9.546 15.744C8.76879 15.4519 7.95 15.3031 7.12703 15.3031C6.49424 15.2706 5.8126 15.2706 5.8126 15.2706V17.6734C5.8126 18.9581 4.84521 20 3.65236 20C2.45949 20 1.49211 18.9581 1.49211 17.6734V15.0065ZM2.53119 15.2706V17.6734C2.53119 18.3404 3.03306 18.8809 3.65236 18.8809C4.27165 18.8809 4.77352 18.3404 4.77352 17.6734V15.2706H2.59769C2.56548 15.2706 2.54262 15.2706 2.53119 15.2706ZM8.76564 14.2836L8.91321 14.3283C11.3758 15.0714 13.667 16.3617 15.6391 18.1165L16.4891 18.8741V1.12605L15.6371 1.88369C13.6659 3.63624 11.3769 4.92434 8.91636 5.6652L8.76564 5.71108V14.2836ZM5.8126 14.1515H7.72657V5.84874H2.59769C1.7363 5.84874 1.03908 6.60078 1.03908 7.52743V12.4728C1.03908 13.4006 1.7363 14.1515 2.59666 14.1515H5.8126Z" fill="#0F0F0F"/>
</svg>
