<svg width="50" height="50" viewBox="0 0 50 50" fill="none" xmlns="http://www.w3.org/2000/svg">
<path d="M42.3373 1.5625H44.7873C45.7539 1.5625 46.6809 1.94633 47.3646 2.6296C48.0482 3.31288 48.4326 4.23968 48.4331 5.20625V7.65833C48.4347 13.3688 46.2549 18.8642 42.3394 23.0208L39.781 25.7375C38.7228 26.859 37.6133 27.931 36.4561 28.95V39.4458C36.4561 40.7271 35.7831 41.9125 34.6852 42.5708L25.281 48.2146C25.0676 48.3428 24.8265 48.4182 24.578 48.4343C24.3295 48.4505 24.0807 48.407 23.8524 48.3076C23.6241 48.2081 23.4228 48.0555 23.2655 47.8625C23.1081 47.6694 22.9992 47.4416 22.9477 47.1979L20.9415 37.6729C20.8378 37.5906 20.7403 37.5008 20.6498 37.4042L16.7498 33.25L12.5956 29.3479C12.499 29.2574 12.4092 29.1599 12.3269 29.0562L2.80396 27.05C2.55993 26.9991 2.33162 26.8905 2.1381 26.7334C1.94458 26.5763 1.79147 26.3751 1.69155 26.1467C1.59163 25.9183 1.54781 25.6693 1.56374 25.4206C1.57967 25.1718 1.6549 24.9304 1.78313 24.7167L7.42896 15.3125C8.0873 14.2146 9.27271 13.5417 10.554 13.5417H21.0477C22.0668 12.3858 23.1388 11.2777 24.2602 10.2208L26.9769 7.65833C31.1322 3.74304 36.6259 1.56254 42.3352 1.5625H42.3373ZM29.1206 9.93333L26.404 12.4937C23.8475 14.9031 21.5725 17.5946 19.6227 20.5167L15.054 27.3708L18.9269 31.0042L18.9977 31.075L22.629 34.9458L29.479 30.3792C32.4035 28.4284 35.0971 26.152 37.5081 23.5937L40.0665 20.8792C43.4362 17.302 45.312 12.5727 45.3102 7.65833V5.20833C45.3102 5.0702 45.2553 4.93772 45.1577 4.84005C45.06 4.74237 44.9275 4.6875 44.7894 4.6875H42.3373C37.4241 4.68735 32.6964 6.56383 29.1206 9.93333ZM13.5415 43.75C11.0227 46.2687 5.41438 46.7604 3.66021 46.8542C3.59147 46.858 3.52267 46.8475 3.45814 46.8235C3.39361 46.7995 3.33474 46.7624 3.28521 46.7146C3.23738 46.6651 3.20029 46.6062 3.17627 46.5417C3.15226 46.4771 3.14182 46.4083 3.14563 46.3396C3.23938 44.5854 3.73105 38.9771 6.2498 36.4583C8.1248 34.5833 11.6665 34.5833 13.5415 36.4583C15.4165 38.3333 15.4165 41.875 13.5415 43.75ZM12.3081 25.8583L17.0206 18.7854C17.5012 18.0646 17.9991 17.3583 18.5144 16.6667H10.554C10.4642 16.6667 10.376 16.69 10.2979 16.7341C10.2198 16.7783 10.1544 16.8419 10.1081 16.9187L5.59355 24.4437L12.3081 25.8583ZM33.3331 31.4833C32.6387 32 31.9317 32.4986 31.2123 32.9792L24.1435 37.6917L25.556 44.4062L33.081 39.8917C33.1579 39.8454 33.2215 39.78 33.2657 39.7019C33.3098 39.6238 33.3331 39.5356 33.3331 39.4458V31.4833ZM36.4581 16.6667C36.458 17.0772 36.377 17.4837 36.2198 17.8629C36.0626 18.2421 35.8322 18.5866 35.5418 18.8768C35.2514 19.167 34.9067 19.3971 34.5274 19.5541C34.1481 19.7111 33.7416 19.7918 33.331 19.7917C32.9205 19.7915 32.5141 19.7105 32.1348 19.5533C31.7556 19.3961 31.4111 19.1657 31.1209 18.8753C30.8307 18.585 30.6006 18.2403 30.4436 17.8609C30.2866 17.4816 30.2059 17.0751 30.206 16.6646C30.2063 15.8355 30.5359 15.0405 31.1224 14.4544C31.7088 13.8684 32.5041 13.5393 33.3331 13.5396C34.1622 13.5399 34.9572 13.8695 35.5433 14.4559C36.1293 15.0424 36.4584 15.8376 36.4581 16.6667Z" fill="black"/>
</svg>
